# xmcd CD database file
#
# Track frame offsets:
#	150
#	31628
#	57837
#	91111
#
# Disc length: 1864 seconds
#
# Revision: 0
# Processed by: cddbd v1.5.2PL0 Copyright (c) Steve Scherf et al.
# Submitted via: CDex 1.70beta2
#
DISCID=20074604
DTITLE=George Benson - White Rabbit
DYEAR=1972
DGENRE=Jazz
TTITLE0=White Rabbit
TTITLE1=Little Train
TTITLE2=California Dreamin'
TTITLE3=El Mar
EXTD=YEAR: 1972
EXTT0=
EXTT1=
EXTT2=
EXTT3=
PLAYORDER=
